<svg data-v-6cfe84e8="" id="circuit-k83yh4ay" height="130" width="200" viewBox="0 0 200 130" xmlns="http://www.w3.org/2000/svg" xmlns:svg="http://www.w3.org/2000/svg" class=""><defs data-v-6cfe84e8=""><style data-v-6cfe84e8="" type="text/css"> @font-face { font-family: 'IBM Plex Mono'; src: url('https://fonts.googleapis.com/css?family=IBM+Plex+Mono'); } </style><filter data-v-6cfe84e8="" id="dropshadow" height="140%" width="140%"><feGaussianBlur data-v-6cfe84e8="" in="SourceAlpha" stdDeviation="1"/><feOffset data-v-6cfe84e8="" dx="1" dy="2" result="offsetblur"/><feMerge data-v-6cfe84e8=""><feMergeNode data-v-6cfe84e8=""/><feMergeNode data-v-6cfe84e8="" in="SourceGraphic"/></feMerge></filter></defs><g data-v-6cfe84e8=""><g data-v-6cfe84e8="" transform="translate(100, 40)"><g data-v-6cfe84e8="" transform="translate(-34,-13) scale(0.85)"><g data-v-6cfe84e8="" transform="translate(7, 7.5) scale(0.8)"><path data-v-6cfe84e8="" fill-rule="evenodd" clip-rule="evenodd" d="M9.5 17.4304H11.5C13.1569 17.4304 14.5 16.0873 14.5 14.4304V6.43042C14.5 4.77357 13.1569 3.43042 11.5 3.43042H9.5C7.84315 3.43042 6.5 4.77357 6.5 6.43042V14.4304C6.5 16.0873 7.84315 17.4304 9.5 17.4304ZM8.5 6.43042C8.5 5.87814 8.94772 5.43042 9.5 5.43042H11.5C12.0523 5.43042 12.5 5.87814 12.5 6.43042V14.4304C12.5 14.9827 12.0523 15.4304 11.5 15.4304H9.5C8.94772 15.4304 8.5 14.9827 8.5 14.4304V6.43042Z" fill="#202529"/><path data-v-6cfe84e8="" d="M19.3454 20.4304L17.5 19.5304L22.1907 10.4304L17.5 1.33042L19.3454 0.43042L24.5 10.4304L19.3454 20.4304V20.4304Z" fill="#202529"/><rect data-v-6cfe84e8="" x="0.5" y="0.43042" width="2" height="20" fill="#202529"/></g></g><line data-v-6cfe84e8="" x1="0" x2="190" y1="0" y2="0" fill="none" stroke="#979797" style="stroke-width: 1.5px; stroke-linecap: round;"/></g></g><g data-v-6cfe84e8="" transform="translate(100, 90)"><line data-v-6cfe84e8="" x1="0" x2="190" y1="0" y2="0" fill="none" stroke="#979797" style="stroke-width: 1px; stroke-linecap: round;"/></g><g data-v-2fca76db="" data-v-6cfe84e8="" style="font-family: &quot;IBM Plex Mono&quot;;"><g data-v-2fca76db="" class="svgGate"><!----><!----><g transform="translate(111,24)"><rect width="32" height="32" style="fill: rgb(48, 176, 255);"/><!----><text dominant-baseline="alphabetical" x="16" y="22" style="font-size: 19.5px; font-style: normal; fill: rgb(0, 39, 73); font-weight: normal;"><tspan text-anchor="middle">H</tspan></text><text x="16" y="28" style="font-size: 8.5px; font-style: normal; fill: rgb(0, 39, 73); font-weight: bold;"><!----></text><!----></g><!----></g></g><g data-v-6cfe84e8="" transform="translate(-5 0)" class="fixedLabels"><rect data-v-6cfe84e8="" x="0" y="0" width="70" height="130" style="fill: white;"/><g data-v-6cfe84e8=""><g data-v-6cfe84e8="" transform="translate(&#xA;              65,&#xA;              45&#xA;            )" class="registerLabel"><!----><text data-v-6cfe84e8="" text-anchor="end" font-family="'IBM Plex Mono'" font-size="14px" font-weight="bold" fill="#565656" class="small"> q[0] </text><!----></g><!----></g></g><g data-v-6cfe84e8=""><g data-v-6cfe84e8=""><text data-v-6cfe84e8="" x="65" y="95" text-anchor="end" font-family="'IBM Plex Mono'" font-size="14px" font-weight="bold" fill="#565656" class="small"> c5 </text></g></g></svg>